<mxfile host="app.diagrams.net" modified="2022-05-25T21:20:50.292Z" agent="5.0 (Macintosh; Intel Mac OS X 10_15_7) AppleWebKit/537.36 (KHTML, like Gecko) Chrome/101.0.4951.64 Safari/537.36" etag="BHCvMbX0_EpA0fxPPo3H" version="18.0.3" type="github">
  <diagram id="euX9nNFD9BoxJJKMqH4J" name="Page-1">
    <mxGraphModel dx="946" dy="646" grid="1" gridSize="10" guides="1" tooltips="1" connect="1" arrows="1" fold="1" page="1" pageScale="1" pageWidth="827" pageHeight="1169" math="0" shadow="0">
      <root>
        <mxCell id="0" />
        <mxCell id="1" parent="0" />
        <mxCell id="ZAe0ddPcNr2fZ-YaMO6E-1" value="" style="ellipse;whiteSpace=wrap;html=1;aspect=fixed;" parent="1" vertex="1">
          <mxGeometry x="350" y="70" width="80" height="80" as="geometry" />
        </mxCell>
        <mxCell id="ZAe0ddPcNr2fZ-YaMO6E-2" value="&lt;font size=&quot;1&quot; style=&quot;&quot;&gt;&lt;b style=&quot;font-size: 20px;&quot;&gt;[CLS]&lt;/b&gt;&lt;/font&gt;" style="text;html=1;strokeColor=none;fillColor=none;align=center;verticalAlign=middle;whiteSpace=wrap;rounded=0;" parent="1" vertex="1">
          <mxGeometry x="360" y="95" width="60" height="30" as="geometry" />
        </mxCell>
        <mxCell id="ZAe0ddPcNr2fZ-YaMO6E-3" value="" style="endArrow=classic;html=1;rounded=0;exitX=0.5;exitY=1;exitDx=0;exitDy=0;" parent="1" source="ZAe0ddPcNr2fZ-YaMO6E-1" target="ZAe0ddPcNr2fZ-YaMO6E-4" edge="1">
          <mxGeometry width="50" height="50" relative="1" as="geometry">
            <mxPoint x="330" y="210" as="sourcePoint" />
            <mxPoint x="390" y="200" as="targetPoint" />
          </mxGeometry>
        </mxCell>
        <mxCell id="ZAe0ddPcNr2fZ-YaMO6E-4" value="&lt;font style=&quot;font-size: 20px;&quot;&gt;&lt;b&gt;cR1&lt;/b&gt;&lt;/font&gt;" style="ellipse;whiteSpace=wrap;html=1;aspect=fixed;" parent="1" vertex="1">
          <mxGeometry x="350" y="190" width="80" height="80" as="geometry" />
        </mxCell>
        <mxCell id="ZAe0ddPcNr2fZ-YaMO6E-5" value="&lt;font style=&quot;font-size: 20px;&quot;&gt;&lt;b&gt;cV&lt;/b&gt;&lt;/font&gt;" style="ellipse;whiteSpace=wrap;html=1;aspect=fixed;fontSize=16;" parent="1" vertex="1">
          <mxGeometry x="490" y="190" width="80" height="80" as="geometry" />
        </mxCell>
        <mxCell id="ZAe0ddPcNr2fZ-YaMO6E-6" value="" style="endArrow=classic;html=1;rounded=0;fontSize=16;exitX=1;exitY=1;exitDx=0;exitDy=0;entryX=0;entryY=0;entryDx=0;entryDy=0;" parent="1" source="ZAe0ddPcNr2fZ-YaMO6E-1" target="ZAe0ddPcNr2fZ-YaMO6E-5" edge="1">
          <mxGeometry width="50" height="50" relative="1" as="geometry">
            <mxPoint x="390" y="350" as="sourcePoint" />
            <mxPoint x="440" y="300" as="targetPoint" />
          </mxGeometry>
        </mxCell>
        <mxCell id="ZAe0ddPcNr2fZ-YaMO6E-7" value="&lt;font style=&quot;font-size: 20px;&quot;&gt;&lt;b&gt;cR1&lt;/b&gt;&lt;/font&gt;" style="ellipse;whiteSpace=wrap;html=1;aspect=fixed;fontSize=16;" parent="1" vertex="1">
          <mxGeometry x="490" y="320" width="80" height="80" as="geometry" />
        </mxCell>
        <mxCell id="ZAe0ddPcNr2fZ-YaMO6E-8" value="" style="endArrow=classic;html=1;rounded=0;fontSize=16;exitX=0.5;exitY=1;exitDx=0;exitDy=0;entryX=0.5;entryY=0;entryDx=0;entryDy=0;" parent="1" source="ZAe0ddPcNr2fZ-YaMO6E-5" target="ZAe0ddPcNr2fZ-YaMO6E-7" edge="1">
          <mxGeometry width="50" height="50" relative="1" as="geometry">
            <mxPoint x="390" y="350" as="sourcePoint" />
            <mxPoint x="440" y="300" as="targetPoint" />
          </mxGeometry>
        </mxCell>
        <mxCell id="ZAe0ddPcNr2fZ-YaMO6E-9" value="&lt;font size=&quot;1&quot; style=&quot;&quot;&gt;&lt;b style=&quot;font-size: 20px;&quot;&gt;cR2&lt;/b&gt;&lt;/font&gt;" style="ellipse;whiteSpace=wrap;html=1;aspect=fixed;fontSize=16;" parent="1" vertex="1">
          <mxGeometry x="300" y="320" width="80" height="80" as="geometry" />
        </mxCell>
        <mxCell id="ZAe0ddPcNr2fZ-YaMO6E-10" value="" style="endArrow=classic;html=1;rounded=0;fontSize=16;exitX=0;exitY=1;exitDx=0;exitDy=0;entryX=0.5;entryY=0;entryDx=0;entryDy=0;" parent="1" source="ZAe0ddPcNr2fZ-YaMO6E-4" target="ZAe0ddPcNr2fZ-YaMO6E-9" edge="1">
          <mxGeometry width="50" height="50" relative="1" as="geometry">
            <mxPoint x="390" y="350" as="sourcePoint" />
            <mxPoint x="440" y="300" as="targetPoint" />
          </mxGeometry>
        </mxCell>
        <mxCell id="ZAe0ddPcNr2fZ-YaMO6E-11" value="&lt;font style=&quot;font-size: 20px;&quot;&gt;&lt;b&gt;cV&lt;/b&gt;&lt;/font&gt;" style="ellipse;whiteSpace=wrap;html=1;aspect=fixed;fontSize=16;" parent="1" vertex="1">
          <mxGeometry x="400" y="320" width="80" height="80" as="geometry" />
        </mxCell>
        <mxCell id="ZAe0ddPcNr2fZ-YaMO6E-12" value="" style="endArrow=classic;html=1;rounded=0;fontSize=16;exitX=1;exitY=1;exitDx=0;exitDy=0;entryX=0.5;entryY=0;entryDx=0;entryDy=0;" parent="1" source="ZAe0ddPcNr2fZ-YaMO6E-4" target="ZAe0ddPcNr2fZ-YaMO6E-11" edge="1">
          <mxGeometry width="50" height="50" relative="1" as="geometry">
            <mxPoint x="390" y="350" as="sourcePoint" />
            <mxPoint x="440" y="300" as="targetPoint" />
          </mxGeometry>
        </mxCell>
        <mxCell id="ZAe0ddPcNr2fZ-YaMO6E-13" value="&lt;font style=&quot;font-size: 20px;&quot;&gt;&lt;b&gt;cV&lt;/b&gt;&lt;/font&gt;" style="ellipse;whiteSpace=wrap;html=1;aspect=fixed;fontSize=16;" parent="1" vertex="1">
          <mxGeometry x="300" y="450" width="80" height="80" as="geometry" />
        </mxCell>
        <mxCell id="ZAe0ddPcNr2fZ-YaMO6E-14" value="" style="endArrow=classic;html=1;rounded=0;fontSize=16;exitX=0.5;exitY=1;exitDx=0;exitDy=0;entryX=0.5;entryY=0;entryDx=0;entryDy=0;" parent="1" source="ZAe0ddPcNr2fZ-YaMO6E-9" target="ZAe0ddPcNr2fZ-YaMO6E-13" edge="1">
          <mxGeometry width="50" height="50" relative="1" as="geometry">
            <mxPoint x="390" y="350" as="sourcePoint" />
            <mxPoint x="440" y="300" as="targetPoint" />
          </mxGeometry>
        </mxCell>
        <mxCell id="ZAe0ddPcNr2fZ-YaMO6E-15" value="&lt;font style=&quot;font-size: 20px;&quot;&gt;&lt;b&gt;cR2&lt;/b&gt;&lt;/font&gt;" style="ellipse;whiteSpace=wrap;html=1;aspect=fixed;fontSize=16;" parent="1" vertex="1">
          <mxGeometry x="400" y="450" width="80" height="80" as="geometry" />
        </mxCell>
        <mxCell id="ZAe0ddPcNr2fZ-YaMO6E-16" value="" style="endArrow=classic;html=1;rounded=0;fontSize=16;exitX=0.5;exitY=1;exitDx=0;exitDy=0;" parent="1" source="ZAe0ddPcNr2fZ-YaMO6E-11" target="ZAe0ddPcNr2fZ-YaMO6E-15" edge="1">
          <mxGeometry width="50" height="50" relative="1" as="geometry">
            <mxPoint x="390" y="350" as="sourcePoint" />
            <mxPoint x="440" y="300" as="targetPoint" />
          </mxGeometry>
        </mxCell>
        <mxCell id="ZAe0ddPcNr2fZ-YaMO6E-17" value="&lt;font style=&quot;font-size: 20px;&quot;&gt;&lt;b&gt;cR2&lt;/b&gt;&lt;/font&gt;" style="ellipse;whiteSpace=wrap;html=1;aspect=fixed;fontSize=16;" parent="1" vertex="1">
          <mxGeometry x="490" y="450" width="80" height="80" as="geometry" />
        </mxCell>
        <mxCell id="ZAe0ddPcNr2fZ-YaMO6E-18" value="" style="endArrow=classic;html=1;rounded=0;fontSize=16;exitX=0.5;exitY=1;exitDx=0;exitDy=0;entryX=0.5;entryY=0;entryDx=0;entryDy=0;" parent="1" source="ZAe0ddPcNr2fZ-YaMO6E-7" target="ZAe0ddPcNr2fZ-YaMO6E-17" edge="1">
          <mxGeometry width="50" height="50" relative="1" as="geometry">
            <mxPoint x="390" y="350" as="sourcePoint" />
            <mxPoint x="440" y="300" as="targetPoint" />
          </mxGeometry>
        </mxCell>
        <mxCell id="ZAe0ddPcNr2fZ-YaMO6E-19" value="&lt;font style=&quot;font-size: 20px;&quot;&gt;&lt;b&gt;R1&lt;/b&gt;&lt;/font&gt;" style="ellipse;whiteSpace=wrap;html=1;aspect=fixed;fontSize=16;" parent="1" vertex="1">
          <mxGeometry x="590" y="450" width="80" height="80" as="geometry" />
        </mxCell>
        <mxCell id="ZAe0ddPcNr2fZ-YaMO6E-20" value="" style="endArrow=classic;html=1;rounded=0;fontSize=16;exitX=1;exitY=1;exitDx=0;exitDy=0;entryX=0.5;entryY=0;entryDx=0;entryDy=0;" parent="1" source="ZAe0ddPcNr2fZ-YaMO6E-7" target="ZAe0ddPcNr2fZ-YaMO6E-19" edge="1">
          <mxGeometry width="50" height="50" relative="1" as="geometry">
            <mxPoint x="390" y="350" as="sourcePoint" />
            <mxPoint x="440" y="300" as="targetPoint" />
          </mxGeometry>
        </mxCell>
        <mxCell id="ZAe0ddPcNr2fZ-YaMO6E-21" value="&lt;font style=&quot;font-size: 20px;&quot;&gt;&lt;b&gt;R1&lt;/b&gt;&lt;/font&gt;" style="ellipse;whiteSpace=wrap;html=1;aspect=fixed;fontSize=16;" parent="1" vertex="1">
          <mxGeometry x="400" y="584.5" width="80" height="80" as="geometry" />
        </mxCell>
        <mxCell id="ZAe0ddPcNr2fZ-YaMO6E-22" value="" style="endArrow=classic;html=1;rounded=0;fontSize=16;exitX=0.5;exitY=1;exitDx=0;exitDy=0;entryX=0;entryY=0;entryDx=0;entryDy=0;" parent="1" source="ZAe0ddPcNr2fZ-YaMO6E-13" target="ZAe0ddPcNr2fZ-YaMO6E-21" edge="1">
          <mxGeometry width="50" height="50" relative="1" as="geometry">
            <mxPoint x="390" y="520" as="sourcePoint" />
            <mxPoint x="440" y="470" as="targetPoint" />
          </mxGeometry>
        </mxCell>
        <mxCell id="ZAe0ddPcNr2fZ-YaMO6E-23" value="" style="endArrow=classic;html=1;rounded=0;fontSize=16;exitX=0.5;exitY=1;exitDx=0;exitDy=0;entryX=0.5;entryY=0;entryDx=0;entryDy=0;" parent="1" source="ZAe0ddPcNr2fZ-YaMO6E-15" target="ZAe0ddPcNr2fZ-YaMO6E-21" edge="1">
          <mxGeometry width="50" height="50" relative="1" as="geometry">
            <mxPoint x="390" y="520" as="sourcePoint" />
            <mxPoint x="440" y="470" as="targetPoint" />
          </mxGeometry>
        </mxCell>
        <mxCell id="ZAe0ddPcNr2fZ-YaMO6E-24" value="" style="endArrow=classic;html=1;rounded=0;fontSize=16;exitX=0.5;exitY=1;exitDx=0;exitDy=0;entryX=1;entryY=0;entryDx=0;entryDy=0;" parent="1" source="ZAe0ddPcNr2fZ-YaMO6E-17" target="ZAe0ddPcNr2fZ-YaMO6E-21" edge="1">
          <mxGeometry width="50" height="50" relative="1" as="geometry">
            <mxPoint x="390" y="520" as="sourcePoint" />
            <mxPoint x="440" y="470" as="targetPoint" />
          </mxGeometry>
        </mxCell>
        <mxCell id="ZAe0ddPcNr2fZ-YaMO6E-25" value="&lt;font style=&quot;font-size: 20px;&quot;&gt;&lt;b&gt;R2&lt;/b&gt;&lt;/font&gt;" style="ellipse;whiteSpace=wrap;html=1;aspect=fixed;fontSize=16;" parent="1" vertex="1">
          <mxGeometry x="400" y="700" width="80" height="80" as="geometry" />
        </mxCell>
        <mxCell id="ZAe0ddPcNr2fZ-YaMO6E-26" value="" style="endArrow=classic;html=1;rounded=0;fontSize=16;exitX=0;exitY=1;exitDx=0;exitDy=0;entryX=0;entryY=0;entryDx=0;entryDy=0;" parent="1" source="ZAe0ddPcNr2fZ-YaMO6E-21" target="ZAe0ddPcNr2fZ-YaMO6E-25" edge="1">
          <mxGeometry width="50" height="50" relative="1" as="geometry">
            <mxPoint x="390" y="520" as="sourcePoint" />
            <mxPoint x="440" y="470" as="targetPoint" />
          </mxGeometry>
        </mxCell>
        <mxCell id="ZAe0ddPcNr2fZ-YaMO6E-27" value="" style="endArrow=classic;html=1;rounded=0;fontSize=16;entryX=1;entryY=1;entryDx=0;entryDy=0;exitX=1;exitY=0;exitDx=0;exitDy=0;" parent="1" source="ZAe0ddPcNr2fZ-YaMO6E-25" target="ZAe0ddPcNr2fZ-YaMO6E-21" edge="1">
          <mxGeometry width="50" height="50" relative="1" as="geometry">
            <mxPoint x="370" y="720" as="sourcePoint" />
            <mxPoint x="350" y="670" as="targetPoint" />
          </mxGeometry>
        </mxCell>
        <mxCell id="ZAe0ddPcNr2fZ-YaMO6E-28" value="&lt;b&gt;[SEP]&lt;/b&gt;" style="ellipse;whiteSpace=wrap;html=1;aspect=fixed;fontSize=16;" parent="1" vertex="1">
          <mxGeometry x="400" y="830" width="80" height="80" as="geometry" />
        </mxCell>
        <mxCell id="ZAe0ddPcNr2fZ-YaMO6E-29" value="" style="endArrow=classic;html=1;rounded=0;fontSize=16;exitX=0.5;exitY=1;exitDx=0;exitDy=0;entryX=0.5;entryY=0;entryDx=0;entryDy=0;" parent="1" source="ZAe0ddPcNr2fZ-YaMO6E-25" target="ZAe0ddPcNr2fZ-YaMO6E-28" edge="1">
          <mxGeometry width="50" height="50" relative="1" as="geometry">
            <mxPoint x="390" y="760" as="sourcePoint" />
            <mxPoint x="440" y="710" as="targetPoint" />
          </mxGeometry>
        </mxCell>
        <mxCell id="ZAe0ddPcNr2fZ-YaMO6E-31" value="" style="curved=1;endArrow=classic;html=1;rounded=0;fontSize=16;exitX=0;exitY=0.5;exitDx=0;exitDy=0;entryX=0;entryY=0.5;entryDx=0;entryDy=0;" parent="1" source="ZAe0ddPcNr2fZ-YaMO6E-1" target="ZAe0ddPcNr2fZ-YaMO6E-28" edge="1">
          <mxGeometry width="50" height="50" relative="1" as="geometry">
            <mxPoint x="190" y="350" as="sourcePoint" />
            <mxPoint x="280" y="690" as="targetPoint" />
            <Array as="points">
              <mxPoint x="280" y="290" />
              <mxPoint x="260" y="490" />
            </Array>
          </mxGeometry>
        </mxCell>
        <mxCell id="ZAe0ddPcNr2fZ-YaMO6E-32" value="" style="endArrow=classic;html=1;rounded=0;fontSize=16;exitX=1;exitY=1;exitDx=0;exitDy=0;entryX=0;entryY=0;entryDx=0;entryDy=0;" parent="1" source="ZAe0ddPcNr2fZ-YaMO6E-11" target="ZAe0ddPcNr2fZ-YaMO6E-19" edge="1">
          <mxGeometry width="50" height="50" relative="1" as="geometry">
            <mxPoint x="390" y="530" as="sourcePoint" />
            <mxPoint x="440" y="480" as="targetPoint" />
          </mxGeometry>
        </mxCell>
        <mxCell id="ZAe0ddPcNr2fZ-YaMO6E-33" value="" style="endArrow=classic;html=1;rounded=0;fontSize=16;exitX=0.5;exitY=1;exitDx=0;exitDy=0;entryX=1;entryY=0;entryDx=0;entryDy=0;" parent="1" source="ZAe0ddPcNr2fZ-YaMO6E-19" target="ZAe0ddPcNr2fZ-YaMO6E-28" edge="1">
          <mxGeometry width="50" height="50" relative="1" as="geometry">
            <mxPoint x="390" y="770" as="sourcePoint" />
            <mxPoint x="440" y="720" as="targetPoint" />
          </mxGeometry>
        </mxCell>
      </root>
    </mxGraphModel>
  </diagram>
</mxfile>
